<svg width="218" height="60" viewBox="0 0 218 60" fill="none" xmlns="http://www.w3.org/2000/svg">
<path d="M27.1765 54C15.481 54 6 45.0457 6 34" stroke="#D94E33" strokeWidth="8" strokeLinecap="round"/>
<path d="M32 6C43.6954 6 53.1765 14.9543 53.1765 26" stroke="#64927C" strokeWidth="8" strokeLinecap="round"/>
<path d="M30.24 43.672C28.448 43.672 26.6933 43.3733 24.976 42.776C23.296 42.1413 21.7653 41.2267 20.384 40.032C19.04 38.8373 17.9573 37.3813 17.136 35.664C16.352 33.9093 15.96 31.9307 15.96 29.728C15.96 27.5253 16.352 25.5653 17.136 23.848C17.9573 22.1307 19.04 20.6747 20.384 19.48C21.728 18.2853 23.24 17.3707 24.92 16.736C26.6 16.1013 28.336 15.784 30.128 15.784C31.4347 15.784 32.6667 15.9707 33.824 16.344C35.0187 16.7173 36.0453 17.1653 36.904 17.688C37.7627 18.2107 38.3787 18.7333 38.752 19.256C39.2373 19.704 39.648 20.1333 39.984 20.544C40.32 20.9547 40.432 21.4587 40.32 22.056C40.208 22.4293 40.04 22.784 39.816 23.12C39.592 23.4187 39.312 23.736 38.976 24.072C38.08 25.08 37.2027 25.4533 36.344 25.192C35.8587 24.9307 35.3733 24.6507 34.888 24.352C34.4027 24.0533 33.8987 23.7733 33.376 23.512C32.8907 23.2133 32.3867 22.9707 31.864 22.784C31.3413 22.5973 30.7627 22.504 30.128 22.504C28.7093 22.504 27.44 22.8213 26.32 23.456C25.2373 24.0533 24.3787 24.8933 23.744 25.976C23.1467 27.0587 22.848 28.3093 22.848 29.728C22.848 31.1467 23.1467 32.416 23.744 33.536C24.3787 34.6187 25.2373 35.4773 26.32 36.112C27.4027 36.7093 28.6347 37.008 30.016 37.008C30.688 37.008 31.3227 36.9333 31.92 36.784C32.5547 36.5973 33.1147 36.3733 33.6 36.112C34.0853 35.8133 34.4773 35.5147 34.776 35.216C35.1867 34.9547 35.56 34.712 35.896 34.488C36.232 34.264 36.5867 34.152 36.96 34.152C37.408 34.152 37.8373 34.32 38.248 34.656C38.696 34.9547 39.1813 35.44 39.704 36.112C40.1893 36.672 40.4507 37.2133 40.488 37.736C40.5627 38.2587 40.4507 38.7627 40.152 39.248C39.8907 39.7333 39.4427 40.1813 38.808 40.592C38.36 41.04 37.688 41.5067 36.792 41.992C35.9333 42.44 34.9253 42.832 33.768 43.168C32.648 43.504 31.472 43.672 30.24 43.672Z" fill="#FAFAFA"/>
<circle cx="20" cy="6" r="3.5" fill="#64927C" stroke="#64927C"/>
<circle cx="40" cy="54" r="3.5" fill="#D94E33" stroke="#D94E33"/>
<path d="M70.992 42.044C69.9893 42.044 68.9867 41.852 67.984 41.468C67.0027 41.0627 66.1067 40.4973 65.296 39.772C64.4853 39.0467 63.8453 38.1827 63.376 37.18C62.9067 36.156 62.672 35.0253 62.672 33.788C62.672 32.636 62.8853 31.5693 63.312 30.588C63.7387 29.5853 64.336 28.7 65.104 27.932C65.872 27.164 66.7467 26.5667 67.728 26.14C68.7307 25.692 69.7973 25.468 70.928 25.468C72.464 25.468 73.8507 25.8413 75.088 26.588C76.3467 27.3133 77.3493 28.3053 78.096 29.564C78.8427 30.8227 79.216 32.22 79.216 33.756C79.216 35.0573 78.9707 36.22 78.48 37.244C78.0107 38.2467 77.3707 39.1107 76.56 39.836C75.7707 40.5613 74.8853 41.116 73.904 41.5C72.944 41.8627 71.9733 42.044 70.992 42.044ZM70.928 37.212C71.44 37.212 71.9627 37.084 72.496 36.828C73.0293 36.572 73.4773 36.188 73.84 35.676C74.2027 35.164 74.384 34.5133 74.384 33.724C74.384 33.0413 74.2347 32.444 73.936 31.932C73.6373 31.42 73.2213 31.0253 72.688 30.748C72.176 30.4493 71.5787 30.3 70.896 30.3C70.256 30.3 69.68 30.4493 69.168 30.748C68.6773 31.0467 68.272 31.4627 67.952 31.996C67.6533 32.508 67.504 33.0947 67.504 33.756C67.504 34.524 67.6747 35.1747 68.016 35.708C68.3787 36.22 68.8267 36.604 69.36 36.86C69.8933 37.0947 70.416 37.212 70.928 37.212ZM83.747 41.788C82.9577 41.788 82.3923 41.6813 82.051 41.468C81.731 41.2333 81.5283 40.9347 81.443 40.572C81.379 40.188 81.347 39.7933 81.347 39.388V28.22C81.347 27.7933 81.379 27.3987 81.443 27.036C81.5283 26.6733 81.7417 26.3853 82.083 26.172C82.4243 25.9373 82.9897 25.82 83.779 25.82C84.547 25.82 85.091 25.9373 85.411 26.172C85.7523 26.4067 85.955 26.7053 86.019 27.068C86.1043 27.4307 86.147 27.836 86.147 28.284V39.42C86.147 39.8253 86.1043 40.22 86.019 40.604C85.955 40.9667 85.7523 41.2547 85.411 41.468C85.091 41.6813 84.5363 41.788 83.747 41.788ZM83.747 23.484C82.9363 23.484 82.3603 23.3667 82.019 23.132C81.6777 22.8973 81.4643 22.588 81.379 22.204C81.315 21.82 81.283 21.4147 81.283 20.988C81.283 20.54 81.3257 20.1347 81.411 19.772C81.4963 19.388 81.7097 19.0893 82.051 18.876C82.3923 18.6413 82.9683 18.524 83.779 18.524C84.5683 18.524 85.1337 18.6413 85.475 18.876C85.8163 19.1107 86.019 19.42 86.083 19.804C86.1683 20.188 86.211 20.5933 86.211 21.02C86.211 21.4467 86.1683 21.852 86.083 22.236C86.019 22.62 85.8163 22.9293 85.475 23.164C85.1337 23.3773 84.5577 23.484 83.747 23.484ZM91.337 41.756C90.5477 41.756 89.9823 41.6493 89.641 41.436C89.321 41.2013 89.1183 40.9027 89.033 40.54C88.969 40.156 88.937 39.7613 88.937 39.356V28.092C88.937 27.6867 88.9797 27.3133 89.065 26.972C89.1503 26.6093 89.353 26.3213 89.673 26.108C90.0143 25.8947 90.5797 25.788 91.369 25.788C92.0517 25.788 92.553 25.884 92.873 26.076C93.193 26.2467 93.3957 26.46 93.481 26.716C93.5877 26.972 93.641 27.2173 93.641 27.452C93.641 27.6653 93.6623 27.8147 93.705 27.9L93.513 28.508C93.5557 28.188 93.7157 27.868 93.993 27.548C94.2917 27.2067 94.6543 26.908 95.081 26.652C95.529 26.3747 95.9983 26.1613 96.489 26.012C97.001 25.8627 97.5023 25.788 97.993 25.788C99.017 25.788 99.9237 25.98 100.713 26.364C101.524 26.7267 102.206 27.26 102.761 27.964C103.316 28.668 103.732 29.5 104.009 30.46C104.308 31.3987 104.457 32.4333 104.457 33.564V39.388C104.457 39.7933 104.414 40.188 104.329 40.572C104.265 40.9347 104.062 41.2227 103.721 41.436C103.401 41.6493 102.846 41.756 102.057 41.756C101.246 41.756 100.67 41.6493 100.329 41.436C100.009 41.2013 99.8063 40.9027 99.721 40.54C99.6357 40.156 99.593 39.7613 99.593 39.356V33.564C99.593 32.924 99.4863 32.38 99.273 31.932C99.0597 31.484 98.7397 31.1427 98.313 30.908C97.8863 30.652 97.3637 30.524 96.745 30.524C96.1263 30.524 95.593 30.652 95.145 30.908C94.697 31.164 94.345 31.516 94.089 31.964C93.8543 32.412 93.737 32.9453 93.737 33.564V39.388C93.737 39.7933 93.6943 40.188 93.609 40.572C93.545 40.9347 93.3423 41.2227 93.001 41.436C92.681 41.6493 92.1263 41.756 91.337 41.756ZM125.663 42.044C124.724 42.044 123.732 41.8947 122.687 41.596C121.642 41.2973 120.618 40.8493 119.615 40.252C118.612 39.6547 117.695 38.8973 116.863 37.98C116.052 37.0413 115.402 35.9533 114.911 34.716C114.442 33.4573 114.207 32.028 114.207 30.428C114.207 28.892 114.442 27.5267 114.911 26.332C115.402 25.116 116.052 24.06 116.863 23.164C117.674 22.268 118.58 21.532 119.583 20.956C120.586 20.3587 121.62 19.9213 122.687 19.644C123.754 19.3453 124.767 19.196 125.727 19.196C126.815 19.196 127.764 19.324 128.575 19.58C129.386 19.836 130.047 20.1027 130.559 20.38C131.071 20.636 131.391 20.8173 131.519 20.924C131.903 21.1587 132.266 21.4253 132.607 21.724C132.948 22.0227 133.13 22.4173 133.151 22.908C133.151 23.164 133.098 23.42 132.991 23.676C132.906 23.9107 132.767 24.1667 132.575 24.444C132.234 24.9347 131.903 25.2973 131.583 25.532C131.284 25.7453 130.975 25.852 130.655 25.852C130.399 25.852 130.154 25.788 129.919 25.66C129.706 25.532 129.428 25.3613 129.087 25.148C128.938 25.0413 128.724 24.9133 128.447 24.764C128.17 24.5933 127.796 24.444 127.327 24.316C126.858 24.1667 126.26 24.092 125.535 24.092C124.788 24.092 124.031 24.2307 123.263 24.508C122.516 24.764 121.823 25.1587 121.183 25.692C120.543 26.2253 120.031 26.908 119.647 27.74C119.263 28.5507 119.071 29.5 119.071 30.588C119.071 31.7187 119.263 32.6893 119.647 33.5C120.052 34.3107 120.575 34.9827 121.215 35.516C121.855 36.0493 122.548 36.4547 123.295 36.732C124.063 36.988 124.81 37.116 125.535 37.116C126.175 37.116 126.719 37.052 127.167 36.924C127.636 36.796 128.031 36.6467 128.351 36.476C128.692 36.284 128.98 36.1133 129.215 35.964C129.45 35.8147 129.684 35.676 129.919 35.548C130.175 35.42 130.431 35.356 130.687 35.356C130.986 35.356 131.284 35.4733 131.583 35.708C131.903 35.9427 132.223 36.316 132.543 36.828C132.735 37.1053 132.884 37.3827 132.991 37.66C133.098 37.916 133.14 38.172 133.119 38.428C133.119 38.876 132.948 39.2493 132.607 39.548C132.266 39.8253 131.903 40.0813 131.519 40.316C131.348 40.4013 131.018 40.5933 130.527 40.892C130.036 41.1693 129.386 41.4253 128.575 41.66C127.764 41.916 126.794 42.044 125.663 42.044ZM137.65 41.788C136.86 41.788 136.295 41.6813 135.954 41.468C135.634 41.2333 135.431 40.924 135.346 40.54C135.282 40.156 135.25 39.7613 135.25 39.356V28.188C135.25 27.7613 135.292 27.3667 135.378 27.004C135.463 26.6413 135.666 26.3533 135.986 26.14C136.327 25.9053 136.892 25.788 137.682 25.788C138.428 25.788 138.962 25.8947 139.282 26.108C139.623 26.3 139.836 26.5347 139.922 26.812C140.007 27.068 140.05 27.292 140.05 27.484L139.666 27.676C139.708 27.5907 139.815 27.4413 139.986 27.228C140.178 26.9933 140.434 26.7587 140.754 26.524C141.074 26.268 141.458 26.0547 141.906 25.884C142.375 25.7133 142.908 25.628 143.506 25.628C143.74 25.628 143.996 25.6493 144.274 25.692C144.572 25.7133 144.871 25.7773 145.17 25.884C145.49 25.9693 145.778 26.0973 146.034 26.268C146.29 26.4173 146.492 26.6093 146.642 26.844C146.812 27.0787 146.898 27.3667 146.898 27.708C146.898 28.5827 146.695 29.3293 146.29 29.948C145.884 30.5453 145.372 30.844 144.754 30.844C144.391 30.844 144.135 30.812 143.986 30.748C143.836 30.684 143.708 30.62 143.602 30.556C143.516 30.492 143.41 30.4387 143.282 30.396C143.154 30.332 142.919 30.3 142.578 30.3C142.258 30.3 141.948 30.3427 141.65 30.428C141.372 30.5133 141.106 30.652 140.85 30.844C140.615 31.0147 140.423 31.2387 140.274 31.516C140.146 31.772 140.082 32.06 140.082 32.38V39.42C140.082 39.8253 140.039 40.22 139.954 40.604C139.89 40.9667 139.687 41.2547 139.346 41.468C139.004 41.6813 138.439 41.788 137.65 41.788ZM160.712 41.756C159.922 41.756 159.336 41.6173 158.952 41.34C158.589 41.0627 158.408 40.7213 158.408 40.316L158.728 39.772C158.6 39.9853 158.354 40.252 157.992 40.572C157.629 40.8707 157.16 41.148 156.584 41.404C156.008 41.6387 155.293 41.756 154.44 41.756C153.458 41.756 152.52 41.5427 151.624 41.116C150.749 40.6893 149.97 40.1027 149.288 39.356C148.605 38.588 148.061 37.724 147.656 36.764C147.272 35.804 147.08 34.7907 147.08 33.724C147.08 32.6787 147.272 31.6867 147.656 30.748C148.061 29.788 148.605 28.9453 149.288 28.22C149.992 27.4733 150.781 26.8867 151.656 26.46C152.53 26.0333 153.458 25.82 154.44 25.82C155.229 25.82 155.901 25.9373 156.456 26.172C157.01 26.3853 157.469 26.6413 157.832 26.94C158.216 27.2387 158.504 27.5267 158.696 27.804L158.44 27.356C158.418 26.844 158.589 26.46 158.952 26.204C159.336 25.9267 159.933 25.788 160.744 25.788C161.512 25.788 162.056 25.9053 162.376 26.14C162.717 26.3747 162.92 26.684 162.984 27.068C163.069 27.452 163.112 27.8573 163.112 28.284V39.324C163.112 39.7293 163.069 40.124 162.984 40.508C162.92 40.892 162.717 41.2013 162.376 41.436C162.056 41.6493 161.501 41.756 160.712 41.756ZM155.144 36.988C155.698 36.988 156.2 36.8493 156.648 36.572C157.117 36.2733 157.48 35.8787 157.736 35.388C158.013 34.8973 158.152 34.3533 158.152 33.756C158.152 33.1373 158.013 32.5933 157.736 32.124C157.458 31.6333 157.085 31.2493 156.616 30.972C156.146 30.6733 155.634 30.524 155.08 30.524C154.461 30.524 153.906 30.6733 153.416 30.972C152.946 31.2707 152.562 31.6653 152.264 32.156C151.986 32.6467 151.848 33.2013 151.848 33.82C151.848 34.396 151.986 34.9293 152.264 35.42C152.562 35.8893 152.957 36.2733 153.448 36.572C153.96 36.8493 154.525 36.988 155.144 36.988ZM169.911 41.788C169.164 41.788 168.62 41.6813 168.279 41.468C167.938 41.2333 167.724 40.924 167.639 40.54C167.575 40.156 167.543 39.7613 167.543 39.356V30.652L166.455 30.716C165.858 30.716 165.431 30.524 165.175 30.14C164.919 29.756 164.791 29.1373 164.791 28.284C164.791 27.452 164.93 26.8547 165.207 26.492C165.484 26.108 165.932 25.916 166.551 25.916L167.543 25.98V24.348C167.543 23.6227 167.66 22.908 167.895 22.204C168.13 21.5 168.503 20.8707 169.015 20.316C169.527 19.74 170.178 19.2813 170.967 18.94C171.756 18.5987 172.716 18.428 173.847 18.428C174.252 18.428 174.636 18.4707 174.999 18.556C175.383 18.6413 175.692 18.844 175.927 19.164C176.162 19.484 176.279 20.0493 176.279 20.86C176.279 21.628 176.151 22.1827 175.895 22.524C175.66 22.8653 175.351 23.068 174.967 23.132C174.604 23.196 174.22 23.228 173.815 23.228C173.474 23.228 173.186 23.26 172.951 23.324C172.738 23.3667 172.588 23.4627 172.503 23.612C172.418 23.7613 172.375 23.9853 172.375 24.284V26.044C172.695 26.0013 173.111 25.9693 173.623 25.948C174.156 25.9267 174.658 25.916 175.127 25.916C175.554 25.916 175.991 25.9267 176.439 25.948C176.908 25.9693 177.282 25.9907 177.559 26.012V22.78C177.559 22.3533 177.591 21.9693 177.655 21.628C177.74 21.2867 177.954 21.0093 178.295 20.796C178.636 20.5613 179.191 20.444 179.959 20.444C180.727 20.444 181.271 20.5613 181.591 20.796C181.932 21.0307 182.135 21.3293 182.199 21.692C182.284 22.0547 182.327 22.4493 182.327 22.876V26.012L184.471 25.916C184.898 25.916 185.292 25.9587 185.655 26.044C186.018 26.108 186.306 26.3107 186.519 26.652C186.754 26.9933 186.871 27.5587 186.871 28.348C186.871 29.116 186.754 29.6707 186.519 30.012C186.284 30.3533 185.986 30.5667 185.623 30.652C185.26 30.716 184.866 30.748 184.439 30.748L182.327 30.652V35.58C182.327 36.0493 182.37 36.4013 182.455 36.636C182.562 36.8493 182.722 36.9987 182.935 37.084C183.148 37.1693 183.436 37.212 183.799 37.212C184.29 37.212 184.716 37.2547 185.079 37.34C185.442 37.4253 185.719 37.6173 185.911 37.916C186.103 38.2147 186.199 38.716 186.199 39.42C186.199 40.188 186.082 40.7427 185.847 41.084C185.612 41.4253 185.303 41.628 184.919 41.692C184.556 41.756 184.183 41.788 183.799 41.788C182.455 41.788 181.314 41.564 180.375 41.116C179.458 40.6467 178.754 39.964 178.263 39.068C177.794 38.172 177.559 37.0733 177.559 35.772V30.652C177.367 30.652 177.122 30.6627 176.823 30.684C176.524 30.684 176.226 30.6947 175.927 30.716C175.628 30.716 175.362 30.716 175.127 30.716C174.722 30.716 174.242 30.7053 173.687 30.684C173.154 30.6627 172.716 30.6413 172.375 30.62V39.42C172.375 39.8253 172.332 40.2093 172.247 40.572C172.162 40.9347 171.948 41.2333 171.607 41.468C171.266 41.6813 170.7 41.788 169.911 41.788ZM196.498 42.076C195.005 42.076 193.714 41.8307 192.626 41.34C191.559 40.8493 190.685 40.2093 190.002 39.42C189.319 38.6093 188.807 37.7133 188.466 36.732C188.146 35.7507 187.986 34.7693 187.986 33.788C187.986 32.188 188.349 30.7693 189.074 29.532C189.799 28.2947 190.802 27.324 192.082 26.62C193.362 25.8947 194.834 25.532 196.498 25.532C197.735 25.532 198.802 25.7347 199.698 26.14C200.615 26.524 201.362 27.036 201.938 27.676C202.535 28.2947 202.973 28.9667 203.25 29.692C203.549 30.4173 203.698 31.1107 203.698 31.772C203.698 32.9453 203.41 33.82 202.834 34.396C202.279 34.9507 201.565 35.228 200.69 35.228H193.074C193.117 35.7827 193.309 36.252 193.65 36.636C194.013 37.02 194.461 37.3187 194.994 37.532C195.527 37.7453 196.093 37.852 196.69 37.852C197.202 37.852 197.65 37.8307 198.034 37.788C198.418 37.724 198.749 37.6493 199.026 37.564C199.303 37.4573 199.559 37.3613 199.794 37.276C200.029 37.1693 200.231 37.084 200.402 37.02C200.594 36.956 200.775 36.9133 200.946 36.892C201.266 36.8707 201.554 36.9667 201.81 37.18C202.087 37.372 202.333 37.6707 202.546 38.076C202.695 38.3107 202.791 38.5347 202.834 38.748C202.898 38.9613 202.93 39.1747 202.93 39.388C202.93 39.9 202.663 40.3587 202.13 40.764C201.618 41.1693 200.882 41.4893 199.922 41.724C198.983 41.9587 197.842 42.076 196.498 42.076ZM193.074 32.604H198.13C198.471 32.604 198.717 32.5507 198.866 32.444C199.037 32.316 199.122 32.0813 199.122 31.74C199.122 31.356 199.005 31.0253 198.77 30.748C198.535 30.4493 198.215 30.2253 197.81 30.076C197.426 29.9053 196.978 29.82 196.466 29.82C195.805 29.82 195.218 29.948 194.706 30.204C194.194 30.46 193.789 30.8013 193.49 31.228C193.213 31.6547 193.074 32.1133 193.074 32.604ZM208.15 41.788C207.36 41.788 206.795 41.6813 206.454 41.468C206.134 41.2333 205.931 40.924 205.846 40.54C205.782 40.156 205.75 39.7613 205.75 39.356V28.188C205.75 27.7613 205.792 27.3667 205.878 27.004C205.963 26.6413 206.166 26.3533 206.486 26.14C206.827 25.9053 207.392 25.788 208.182 25.788C208.928 25.788 209.462 25.8947 209.782 26.108C210.123 26.3 210.336 26.5347 210.422 26.812C210.507 27.068 210.55 27.292 210.55 27.484L210.166 27.676C210.208 27.5907 210.315 27.4413 210.486 27.228C210.678 26.9933 210.934 26.7587 211.254 26.524C211.574 26.268 211.958 26.0547 212.406 25.884C212.875 25.7133 213.408 25.628 214.006 25.628C214.24 25.628 214.496 25.6493 214.774 25.692C215.072 25.7133 215.371 25.7773 215.67 25.884C215.99 25.9693 216.278 26.0973 216.534 26.268C216.79 26.4173 216.992 26.6093 217.142 26.844C217.312 27.0787 217.398 27.3667 217.398 27.708C217.398 28.5827 217.195 29.3293 216.79 29.948C216.384 30.5453 215.872 30.844 215.254 30.844C214.891 30.844 214.635 30.812 214.486 30.748C214.336 30.684 214.208 30.62 214.102 30.556C214.016 30.492 213.91 30.4387 213.782 30.396C213.654 30.332 213.419 30.3 213.078 30.3C212.758 30.3 212.448 30.3427 212.15 30.428C211.872 30.5133 211.606 30.652 211.35 30.844C211.115 31.0147 210.923 31.2387 210.774 31.516C210.646 31.772 210.582 32.06 210.582 32.38V39.42C210.582 39.8253 210.539 40.22 210.454 40.604C210.39 40.9667 210.187 41.2547 209.846 41.468C209.504 41.6813 208.939 41.788 208.15 41.788Z" fill="white"/>
</svg>
