<svg width="60" height="60" viewBox="0 0 60 60" fill="none" xmlns="http://www.w3.org/2000/svg">
<rect width="60" height="60" fill="#33343A"/>
<rect x="-625" y="-158" width="1600" height="900" rx="40" fill="black"/>
<rect x="-601" y="-134" width="1552" height="852" rx="24" fill="#1B191B"/>
<path d="M27.1765 54C15.481 54 6 45.0457 6 34" stroke="#D94E33" stroke-width="8" stroke-linecap="round"/>
<path d="M32 6C43.6954 6 53.1765 14.9543 53.1765 26" stroke="#64927C" stroke-width="8" stroke-linecap="round"/>
<path d="M30.24 43.672C28.448 43.672 26.6933 43.3733 24.976 42.776C23.296 42.1413 21.7653 41.2267 20.384 40.032C19.04 38.8373 17.9573 37.3813 17.136 35.664C16.352 33.9093 15.96 31.9307 15.96 29.728C15.96 27.5253 16.352 25.5653 17.136 23.848C17.9573 22.1307 19.04 20.6747 20.384 19.48C21.728 18.2853 23.24 17.3707 24.92 16.736C26.6 16.1013 28.336 15.784 30.128 15.784C31.4347 15.784 32.6667 15.9707 33.824 16.344C35.0187 16.7173 36.0453 17.1653 36.904 17.688C37.7627 18.2107 38.3787 18.7333 38.752 19.256C39.2373 19.704 39.648 20.1333 39.984 20.544C40.32 20.9547 40.432 21.4587 40.32 22.056C40.208 22.4293 40.04 22.784 39.816 23.12C39.592 23.4187 39.312 23.736 38.976 24.072C38.08 25.08 37.2027 25.4533 36.344 25.192C35.8587 24.9307 35.3733 24.6507 34.888 24.352C34.4027 24.0533 33.8987 23.7733 33.376 23.512C32.8907 23.2133 32.3867 22.9707 31.864 22.784C31.3413 22.5973 30.7627 22.504 30.128 22.504C28.7093 22.504 27.44 22.8213 26.32 23.456C25.2373 24.0533 24.3787 24.8933 23.744 25.976C23.1467 27.0587 22.848 28.3093 22.848 29.728C22.848 31.1467 23.1467 32.416 23.744 33.536C24.3787 34.6187 25.2373 35.4773 26.32 36.112C27.4027 36.7093 28.6347 37.008 30.016 37.008C30.688 37.008 31.3227 36.9333 31.92 36.784C32.5547 36.5973 33.1147 36.3733 33.6 36.112C34.0853 35.8133 34.4773 35.5147 34.776 35.216C35.1867 34.9547 35.56 34.712 35.896 34.488C36.232 34.264 36.5867 34.152 36.96 34.152C37.408 34.152 37.8373 34.32 38.248 34.656C38.696 34.9547 39.1813 35.44 39.704 36.112C40.1893 36.672 40.4507 37.2133 40.488 37.736C40.5627 38.2587 40.4507 38.7627 40.152 39.248C39.8907 39.7333 39.4427 40.1813 38.808 40.592C38.36 41.04 37.688 41.5067 36.792 41.992C35.9333 42.44 34.9253 42.832 33.768 43.168C32.648 43.504 31.472 43.672 30.24 43.672Z" fill="#FAFAFA"/>
<circle cx="20" cy="6" r="3.5" fill="#FAFAFA" stroke="#FAFAFA"/>
<circle cx="40" cy="54" r="4" fill="#FAFAFA"/>
</svg>
