<svg width="71" height="71" viewBox="0 0 71 71" fill="none" xmlns="http://www.w3.org/2000/svg">
<circle cx="35.5" cy="35.5" r="35.5" fill="black"/>
<path d="M33.1765 59C21.481 59 12 50.0457 12 39" stroke="#D94E33" stroke-width="8" stroke-linecap="round"/>
<path d="M38 11C49.6954 11 59.1765 19.9543 59.1765 31" stroke="#64927C" stroke-width="8" stroke-linecap="round"/>
<path d="M36.24 48.672C34.448 48.672 32.6933 48.3733 30.976 47.776C29.296 47.1413 27.7653 46.2267 26.384 45.032C25.04 43.8373 23.9573 42.3813 23.136 40.664C22.352 38.9093 21.96 36.9307 21.96 34.728C21.96 32.5253 22.352 30.5653 23.136 28.848C23.9573 27.1307 25.04 25.6747 26.384 24.48C27.728 23.2853 29.24 22.3707 30.92 21.736C32.6 21.1013 34.336 20.784 36.128 20.784C37.4347 20.784 38.6667 20.9707 39.824 21.344C41.0187 21.7173 42.0453 22.1653 42.904 22.688C43.7627 23.2107 44.3787 23.7333 44.752 24.256C45.2373 24.704 45.648 25.1333 45.984 25.544C46.32 25.9547 46.432 26.4587 46.32 27.056C46.208 27.4293 46.04 27.784 45.816 28.12C45.592 28.4187 45.312 28.736 44.976 29.072C44.08 30.08 43.2027 30.4533 42.344 30.192C41.8587 29.9307 41.3733 29.6507 40.888 29.352C40.4027 29.0533 39.8987 28.7733 39.376 28.512C38.8907 28.2133 38.3867 27.9707 37.864 27.784C37.3413 27.5973 36.7627 27.504 36.128 27.504C34.7093 27.504 33.44 27.8213 32.32 28.456C31.2373 29.0533 30.3787 29.8933 29.744 30.976C29.1467 32.0587 28.848 33.3093 28.848 34.728C28.848 36.1467 29.1467 37.416 29.744 38.536C30.3787 39.6187 31.2373 40.4773 32.32 41.112C33.4027 41.7093 34.6347 42.008 36.016 42.008C36.688 42.008 37.3227 41.9333 37.92 41.784C38.5547 41.5973 39.1147 41.3733 39.6 41.112C40.0853 40.8133 40.4773 40.5147 40.776 40.216C41.1867 39.9547 41.56 39.712 41.896 39.488C42.232 39.264 42.5867 39.152 42.96 39.152C43.408 39.152 43.8373 39.32 44.248 39.656C44.696 39.9547 45.1813 40.44 45.704 41.112C46.1893 41.672 46.4507 42.2133 46.488 42.736C46.5627 43.2587 46.4507 43.7627 46.152 44.248C45.8907 44.7333 45.4427 45.1813 44.808 45.592C44.36 46.04 43.688 46.5067 42.792 46.992C41.9333 47.44 40.9253 47.832 39.768 48.168C38.648 48.504 37.472 48.672 36.24 48.672Z" fill="#FAFAFA"/>
<circle cx="26" cy="11" r="3.5" fill="#64927C" stroke="#64927C"/>
<circle cx="46" cy="59" r="3.5" fill="#D94E33" stroke="#D94E33"/>
</svg>
